HIERARCHY
ROOT Hips
{
	OFFSET -0.001795 -0.223333 0.028219
	CHANNELS 6 Xposition Yposition Zposition Zrotation Yrotation Xrotation 
	JOINT LeftUpLeg
	{
		OFFSET 0.069520 -0.091406 -0.006815
		CHANNELS 3 Zrotation Yrotation Xrotation
		JOINT LeftLeg
		{
			OFFSET 0.034277 -0.375199 -0.004496
			CHANNELS 3 Zrotation Yrotation Xrotation
			JOINT LeftFoot
			{
				OFFSET -0.013596 -0.397961 -0.043693
				CHANNELS 3 Zrotation Yrotation Xrotation
				JOINT LeftToe
				{
					OFFSET 0.026358 -0.055791 0.119288
					CHANNELS 3 Zrotation Yrotation Xrotation
					End Site
					{
						OFFSET 0.000000 0.000000 0.000000
					}
				}
			}
		}
	}
	JOINT RightUpLeg
	{
		OFFSET -0.067670 -0.090522 -0.004320
		CHANNELS 3 Zrotation Yrotation Xrotation
		JOINT RightLeg
		{
			OFFSET -0.038290 -0.382569 -0.008850
			CHANNELS 3 Zrotation Yrotation Xrotation
			JOINT RightFoot
			{
				OFFSET 0.015774 -0.398415 -0.042312
				CHANNELS 3 Zrotation Yrotation Xrotation
				JOINT RightToe
				{
					OFFSET -0.025372 -0.048144 0.123348
					CHANNELS 3 Zrotation Yrotation Xrotation
					End Site
					{
						OFFSET 0.000000 0.000000 0.000000
					}
				}
			}
		}
	}
	JOINT Spine
	{
		OFFSET -0.002533 0.108963 -0.026696
		CHANNELS 3 Zrotation Yrotation Xrotation
		JOINT Spine1
		{
			OFFSET 0.005487 0.135180 0.001092
			CHANNELS 3 Zrotation Yrotation Xrotation
			JOINT Spine2
			{
				OFFSET 0.001457 0.052922 0.025425
				CHANNELS 3 Zrotation Yrotation Xrotation
				JOINT Neck
				{
					OFFSET -0.002778 0.213870 -0.042857
					CHANNELS 3 Zrotation Yrotation Xrotation
					JOINT Head
					{
						OFFSET 0.005152 0.064970 0.051349
						CHANNELS 3 Zrotation Yrotation Xrotation
						End Site
						{
							OFFSET 0.000000 0.000000 0.000000
						}
					}
				}
				JOINT LeftShoulder
				{
					OFFSET 0.078845 0.121749 -0.034090
					CHANNELS 3 Zrotation Yrotation Xrotation
					JOINT LeftArm
					{
						OFFSET 0.090977 0.030469 -0.008868
						CHANNELS 3 Zrotation Yrotation Xrotation
						JOINT LeftForeArm
						{
							OFFSET 0.259612 -0.012772 -0.027456
							CHANNELS 3 Zrotation Yrotation Xrotation
							JOINT LeftHand
							{
								OFFSET 0.249234 0.008986 -0.001171
								CHANNELS 3 Zrotation Yrotation Xrotation
								End Site
								{
									OFFSET 0.000000 0.000000 0.000000
								}
							}
						}
					}
				}
				JOINT RightShoulder
				{
					OFFSET -0.081759 0.118833 -0.038615
					CHANNELS 3 Zrotation Yrotation Xrotation
					JOINT RightArm
					{
						OFFSET -0.096012 0.032551 -0.009143
						CHANNELS 3 Zrotation Yrotation Xrotation
						JOINT RightForeArm
						{
							OFFSET -0.253742 -0.013329 -0.021401
							CHANNELS 3 Zrotation Yrotation Xrotation
							JOINT RightHand
							{
								OFFSET -0.255298 0.007772 -0.005559
								CHANNELS 3 Zrotation Yrotation Xrotation
								End Site
								{
									OFFSET 0.000000 0.000000 0.000000
								}
							}
						}
					}
				}
			}
		}
	}
}
MOTION
Frames: 7
Frame Time: 0.050000
0.000000 0.945488 0.000000 -1.532344 0.245722 5.192235 4.863113 -0.370853 -5.079218 1.382026 0.008752 -3.396509 -0.486481 2.641268 8.601008 0.000000 0.000000 0.000000 -2.164293 0.630324 -6.779049 -1.125422 0.171957 1.102054 -1.057207 -5.465186 7.139740 0.000000 0.000000 0.000000 1.492259 0.135764 -3.247692 -0.363830 0.295216 -5.193594 0.141212 0.031431 6.170539 0.809829 0.364069 -12.272624 0.000000 0.000000 0.000000 -17.115067 2.188916 -2.752252 -58.010486 -4.115146 -5.056385 -8.503902 -19.227447 2.172535 0.000000 0.000000 0.000000 13.938693 -1.643663 -2.017224 60.859940 2.937983 -4.535949 9.093902 21.913407 2.344440 0.000000 0.000000 0.000000 
0.000015 0.944063 0.001259 -1.758306 -0.290365 5.666402 4.924616 -0.338114 -4.389252 1.831270 0.046514 -4.863493 -0.704706 2.085463 8.307124 0.000000 0.000000 0.000000 -2.643101 0.653656 -7.151545 -0.184116 0.066118 1.139227 -0.738229 -4.765523 6.949470 0.000000 0.000000 0.000000 1.818103 0.160768 -3.707957 -1.094188 0.585175 -4.691252 0.554326 0.562960 5.045287 0.139894 0.869294 -13.028460 0.000000 0.000000 0.000000 -18.100155 2.925956 -3.328552 -57.454810 -3.535830 -5.166956 -7.627894 -18.152161 1.891931 0.000000 0.000000 0.000000 14.145916 -2.243809 -2.336810 61.175827 1.529215 -5.157107 9.604966 22.661715 2.519498 0.000000 0.000000 0.000000 
0.000061 0.943777 0.002246 -1.534439 0.459698 5.380897 4.860310 -0.351744 -4.586036 2.303344 -0.057972 -3.456649 -1.423184 0.501777 7.416269 0.000000 0.000000 0.000000 -2.673255 0.638114 -7.036289 -0.258901 0.094523 1.618943 -1.507950 -6.245246 6.635816 0.000000 0.000000 0.000000 1.614775 0.155957 -3.646661 -1.051332 0.592071 -5.625019 0.114224 0.056002 5.303446 -0.162358 1.024191 -12.463765 0.000000 0.000000 0.000000 -17.890227 2.479764 -3.057847 -57.162372 -3.452294 -5.214549 -6.585044 -15.652897 1.480466 0.000000 0.000000 0.000000 15.736628 -1.695696 -2.241106 60.137123 1.053211 -5.346408 7.381730 21.475015 1.991275 0.000000 0.000000 0.000000 
0.000072 0.943260 0.003192 -1.697321 0.652558 5.706967 5.259068 -0.361929 -4.788209 2.033134 0.004952 -4.261361 -2.056757 -0.167518 8.501297 0.000000 0.000000 0.000000 -2.635361 0.695030 -7.742303 -0.038838 0.083378 2.004117 -1.577304 -6.448889 6.867708 0.000000 0.000000 0.000000 1.388758 0.193344 -4.413055 -1.421414 0.742997 -5.292404 1.102984 -0.944822 4.470951 -0.838616 1.320551 -11.655557 0.000000 0.000000 0.000000 -17.814954 3.262138 -3.235865 -58.504768 -3.026495 -5.467059 -4.785319 -14.572923 1.171421 0.000000 0.000000 0.000000 14.497061 -1.337331 -2.148919 60.674705 0.499658 -5.619966 7.742091 21.543703 2.001396 0.000000 0.000000 0.000000 
0.000102 0.943580 0.003935 -1.651730 1.246779 5.451176 4.930887 -0.349764 -4.390520 2.502970 -0.011239 -4.516023 -2.192950 -0.216222 8.796296 0.000000 0.000000 0.000000 -2.463505 0.661543 -7.303318 -0.229029 0.093184 1.682126 -1.780455 -6.941141 7.247247 0.000000 0.000000 0.000000 1.089985 0.191230 -4.456669 -0.856879 0.516512 -5.275601 0.766721 -1.333422 4.080264 -1.261945 1.606731 -11.847305 0.000000 0.000000 0.000000 -17.795205 3.685582 -3.469131 -58.329566 -3.007693 -5.423510 -4.371747 -13.427163 1.024840 0.000000 0.000000 0.000000 14.051536 -1.506594 -2.180667 61.174051 0.020920 -5.886474 7.528622 21.415136 1.947861 0.000000 0.000000 0.000000 
0.000242 0.943905 0.004352 -1.715351 1.467715 5.339787 4.922709 -0.345778 -4.286873 2.811768 -0.022149 -4.665632 -2.234743 -0.138060 9.084929 0.000000 0.000000 0.000000 -2.561244 0.645084 -7.146967 -0.124120 0.071652 1.463608 -1.679466 -6.729382 7.326067 0.000000 0.000000 0.000000 0.893180 0.193115 -4.549453 -0.891948 0.537901 -5.468368 1.125711 -1.693209 3.937854 -1.483160 1.701509 -11.309009 0.000000 0.000000 0.000000 -18.078972 3.845705 -3.528183 -58.602441 -2.731939 -5.577231 -3.882972 -13.509471 0.980871 0.000000 0.000000 0.000000 13.494713 -1.557632 -2.188623 61.470075 -0.446710 -6.171249 8.035789 22.478529 2.132222 0.000000 0.000000 0.000000 
0.000415 0.943964 0.004345 -1.617821 1.672511 5.200492 4.663681 -0.328482 -3.902010 3.024869 0.001778 -5.290129 -2.278812 0.089897 9.725384 0.000000 0.000000 0.000000 -2.478222 0.603331 -6.602938 -0.591073 0.107828 1.012139 -1.736693 -6.853074 7.401209 0.000000 0.000000 0.000000 0.670622 0.200554 -4.795562 -0.812881 0.504704 -5.280682 1.017901 -2.084075 3.559641 -1.858781 1.911908 -10.948763 0.000000 0.000000 0.000000 -17.556670 4.370630 -3.687200 -58.557938 -2.348863 -5.718320 -4.428571 -15.178684 1.184908 0.000000 0.000000 0.000000 13.269178 -1.461802 -2.166249 61.616426 -0.551210 -6.221074 8.328225 23.751721 2.302355 0.000000 0.000000 0.000000 
